<svg width="120" height="120" viewBox="0 0 120 120" fill="none" xmlns="http://www.w3.org/2000/svg">
<g clip-path="url(#clip0_4781_21)">
<path d="M60 115C90.3757 115 115 90.3757 115 60C115 29.6243 90.3757 5 60 5C29.6243 5 5 29.6243 5 60C5 90.3757 29.6243 115 60 115Z" stroke="#575757" stroke-width="4"/>
<path d="M82 40L60 59.9999" stroke="#575757" stroke-width="4"/>
<path d="M39 36L60 60" stroke="#575757" stroke-width="4"/>
<g filter="url(#filter0_d_4781_21)">
<path d="M80.8786 73.5091C80.9959 72.2454 80.6747 71.2469 79.9149 70.5134C79.1558 69.7705 78.0068 69.3391 76.4679 69.2194C75.4105 69.1372 74.4684 69.2206 73.6417 69.4697C72.8157 69.7094 72.1406 70.0843 71.6166 70.5945C71.1026 71.0959 70.7666 71.6919 70.6084 72.3825C70.4692 72.951 70.4822 73.4555 70.6474 73.8957C70.822 74.3367 71.1053 74.7245 71.4972 75.0589C71.8993 75.3846 72.3661 75.6726 72.8975 75.9229C73.4289 76.1732 73.9818 76.392 74.5561 76.5791L77.0818 77.4452C78.1659 77.7955 79.1721 78.23 80.1006 78.7486C81.0291 79.2673 81.8119 79.8886 82.4489 80.6125C83.0954 81.3372 83.5428 82.1793 83.7911 83.139C84.0394 84.0986 84.0207 85.1942 83.7349 86.4258C83.3369 88.1235 82.5541 89.5776 81.3867 90.788C80.2192 91.9985 78.7295 92.8942 76.9176 93.4751C75.1152 94.0568 73.048 94.2569 70.716 94.0755C68.4313 93.8977 66.5277 93.3982 65.0054 92.5769C63.4838 91.7462 62.403 90.622 61.7629 89.2045C61.133 87.7782 61.008 86.0873 61.3881 84.1317L66.7979 84.5526C66.6351 85.5467 66.7451 86.3911 67.128 87.0858C67.5109 87.7805 68.1002 88.325 68.8958 88.7193C69.701 89.1144 70.6417 89.3538 71.718 89.4375C72.832 89.5242 73.8409 89.4364 74.7447 89.1743C75.6578 88.9129 76.4161 88.5065 77.0194 87.955C77.6227 87.4035 78.0114 86.7404 78.1857 85.9656C78.3548 85.2569 78.2834 84.6482 77.9716 84.1395C77.6691 83.6316 77.1673 83.1841 76.466 82.7971C75.7742 82.4108 74.9331 82.051 73.9427 81.7175L70.878 80.6385C68.6221 79.8456 66.9387 78.7743 65.8279 77.4246C64.7266 76.0757 64.4085 74.365 64.8736 72.2925C65.2724 70.5854 66.0838 69.1288 67.3079 67.9227C68.5415 66.7174 70.0501 65.8232 71.8336 65.2401C73.6172 64.6569 75.538 64.4454 77.5962 64.6055C79.6827 64.7678 81.4246 65.269 82.822 66.1091C84.2289 66.9499 85.2266 68.0438 85.8152 69.3909C86.4139 70.7292 86.5386 72.2397 86.1893 73.9222L80.8786 73.5091Z" fill="#575757"/>
</g>
<g filter="url(#filter1_d_4781_21)">
<path d="M46.2747 91.8945C43.7282 92.5769 41.4722 92.5873 39.5067 91.9257C37.5522 91.2612 35.9729 90.0432 34.7689 88.2718C33.5619 86.4893 32.8078 84.2679 32.5067 81.6074C32.1887 78.928 32.4086 76.4338 33.1664 74.1249C33.9242 71.816 35.1549 69.8451 36.8585 68.2122C38.5591 66.5683 40.6553 65.4125 43.1469 64.7449C45.2544 64.1802 47.1575 64.082 48.8562 64.4504C50.5548 64.8187 51.9586 65.6014 53.0676 66.7983C54.1765 67.9953 54.9042 69.5473 55.2505 71.4545L49.2574 73.0604C48.895 71.8398 48.2443 70.926 47.3051 70.3188C46.363 69.7007 45.206 69.5754 43.8339 69.9431C42.6485 70.2607 41.6471 70.8702 40.8298 71.7715C40.0205 72.6589 39.44 73.7851 39.088 75.1499C38.7361 76.5148 38.6629 78.0638 38.8685 79.7969C39.08 81.552 39.4956 82.9935 40.1155 84.1215C40.7434 85.2356 41.5393 86.0106 42.5031 86.4464C43.464 86.8713 44.5372 86.9249 45.7227 86.6073C46.5788 86.3779 47.3305 86 47.9777 85.4736C48.6219 84.9363 49.1332 84.2758 49.5114 83.4921C49.8896 82.7084 50.1064 81.8268 50.1615 80.8474L56.1547 79.2415C56.2287 81.1863 55.8887 83.0127 55.1346 84.7206C54.3805 86.4285 53.2532 87.9071 51.7526 89.1562C50.263 90.4024 48.437 91.3151 46.2747 91.8945Z" fill="#575757"/>
</g>
</g>
<defs>
<filter id="filter0_d_4781_21" x="56.3354" y="63.4434" width="34.8483" height="39.7327" filterUnits="userSpaceOnUse" color-interpolation-filters="sRGB">
<feFlood flood-opacity="0" result="BackgroundImageFix"/>
<feColorMatrix in="SourceAlpha" type="matrix" values="0 0 0 0 0 0 0 0 0 0 0 0 0 0 0 0 0 0 127 0" result="hardAlpha"/>
<feOffset dy="4"/>
<feGaussianBlur stdDeviation="2"/>
<feComposite in2="hardAlpha" operator="out"/>
<feColorMatrix type="matrix" values="0 0 0 0 0 0 0 0 0 0 0 0 0 0 0 0 0 0 0.25 0"/>
<feBlend mode="normal" in2="BackgroundImageFix" result="effect1_dropShadow_4781_21"/>
<feBlend mode="normal" in="SourceGraphic" in2="effect1_dropShadow_4781_21" result="shape"/>
</filter>
<filter id="filter1_d_4781_21" x="24.4276" y="62.1067" width="39.5622" height="40.6951" filterUnits="userSpaceOnUse" color-interpolation-filters="sRGB">
<feFlood flood-opacity="0" result="BackgroundImageFix"/>
<feColorMatrix in="SourceAlpha" type="matrix" values="0 0 0 0 0 0 0 0 0 0 0 0 0 0 0 0 0 0 127 0" result="hardAlpha"/>
<feOffset dy="4"/>
<feGaussianBlur stdDeviation="2"/>
<feComposite in2="hardAlpha" operator="out"/>
<feColorMatrix type="matrix" values="0 0 0 0 0 0 0 0 0 0 0 0 0 0 0 0 0 0 0.25 0"/>
<feBlend mode="normal" in2="BackgroundImageFix" result="effect1_dropShadow_4781_21"/>
<feBlend mode="normal" in="SourceGraphic" in2="effect1_dropShadow_4781_21" result="shape"/>
</filter>
<clipPath id="clip0_4781_21">
<rect width="120" height="120" fill="white"/>
</clipPath>
</defs>
</svg>